<?xml version="1.0" standalone="no"?>
<!DOCTYPE svg PUBLIC "-//W3C//DTD SVG 20010904//EN"
 "http://www.w3.org/TR/2001/REC-SVG-20010904/DTD/svg10.dtd">
<svg version="1.0" xmlns="http://www.w3.org/2000/svg"
 width="500.000000pt" height="500.000000pt" viewBox="0 0 500.000000 500.000000"
 preserveAspectRatio="xMidYMid meet">

<g transform="translate(0.000000,500.000000) scale(0.100000,-0.100000)"
fill="#000000" stroke="none">
<path d="M2701 3246 c-14 -8 -50 -58 -82 -114 l-57 -100 28 -27 28 -27 59 106
58 106 73 0 c47 0 71 4 67 10 -4 6 -12 7 -18 4 -7 -4 -9 -3 -4 1 4 5 -3 19
-15 32 -25 27 -96 31 -137 9z"/>
<path d="M2845 3240 c10 -11 23 -17 29 -13 6 3 8 3 4 -2 -18 -20 16 -35 79
-35 70 0 83 -11 63 -52 -8 -15 3 -8 33 21 48 46 50 60 12 85 -30 20 -145 22
-164 4 -11 -10 -13 -10 -7 0 5 9 -3 12 -30 12 -36 0 -37 0 -19 -20z"/>
<path d="M3044 3139 l-48 -49 25 -26 26 -26 26 44 c30 52 42 94 29 101 -5 4
-31 -16 -58 -44z"/>
<path d="M2903 2935 c-46 -80 -83 -148 -83 -153 0 -5 11 -18 23 -31 29 -27 22
-35 122 142 l78 138 -23 24 c-13 14 -26 25 -29 25 -3 0 -43 -65 -88 -145z"/>
<path d="M2158 3009 l-31 -30 29 -32 29 -32 -28 24 c-16 15 -31 21 -36 15 -4
-5 -44 -73 -88 -151 l-81 -141 28 -27 28 -27 102 181 c87 155 105 181 126 181
16 0 28 -10 40 -32 23 -45 21 -44 49 -18 33 31 32 42 -9 84 -29 31 -39 36 -80
36 -40 0 -53 -5 -78 -31z"/>
<path d="M2512 2944 c-26 -46 -41 -82 -37 -92 3 -9 3 -13 -1 -9 -9 8 -34 -11
-34 -26 0 -8 3 -8 11 0 6 6 18 9 25 6 9 -3 14 2 14 16 0 17 5 20 29 17 25 -3
31 3 61 56 l32 59 -23 25 c-12 13 -25 24 -28 24 -3 0 -25 -34 -49 -76z"/>
<path d="M2330 2915 l-24 -25 19 -38 19 -37 4 30 c2 17 10 37 18 46 11 12 11
19 1 33 -12 16 -14 15 -37 -9z"/>
<path d="M2370 2864 c-13 -32 -13 -30 6 -48 11 -12 20 -13 34 -6 19 10 19 11
-1 45 -12 19 -23 35 -25 35 -3 0 -9 -12 -14 -26z"/>
<path d="M2502 2824 c-5 -9 -25 -17 -48 -18 -21 -2 -47 -7 -57 -11 -10 -4 -24
-2 -34 6 -13 11 -12 5 5 -24 12 -21 22 -44 22 -50 0 -7 25 -37 55 -67 51 -50
56 -53 71 -38 16 15 15 20 -11 64 l-28 47 19 34 c18 34 28 73 19 73 -2 0 -8
-7 -13 -16z"/>
<path d="M2803 2758 c-5 -7 -34 -56 -63 -108 -73 -130 -88 -150 -113 -150 -20
0 -19 -2 8 -32 16 -18 -7 2 -52 46 -91 89 -119 94 -74 13 32 -57 81 -97 118
-97 62 0 85 23 161 153 39 69 72 130 72 135 0 5 -11 18 -23 31 -19 17 -26 19
-34 9z"/>
<path d="M2373 2698 c-5 -7 -33 -55 -62 -105 l-53 -93 -71 0 -71 0 34 -35 c29
-30 40 -35 81 -35 36 0 54 6 73 23 23 20 126 189 126 206 0 4 -11 17 -23 30
-19 17 -26 19 -34 9z"/>
<path d="M1917 2597 c-49 -96 -32 -118 38 -47 l49 50 -24 25 c-13 14 -26 25
-30 25 -4 0 -19 -24 -33 -53z"/>
<path d="M2456 2623 c10 -18 22 -33 26 -33 15 0 8 17 -19 41 l-26 24 19 -32z"/>
<path d="M2520 2615 c-12 -14 -7 -23 39 -68 l53 -52 -33 60 c-42 77 -43 79
-59 60z"/>
<path d="M1936 2521 l-37 -38 31 -27 c30 -25 38 -26 138 -26 l106 0 -34 35
c-30 31 -39 34 -99 37 -65 3 -66 4 -66 31 1 15 0 27 0 27 -1 0 -18 -17 -39
-39z"/>
<path d="M2330 2170 l0 -170 30 0 c30 0 30 0 30 58 0 116 38 173 84 126 12
-12 16 -36 16 -100 l0 -84 30 0 30 0 0 98 c0 112 -11 138 -65 148 -25 4 -43 1
-60 -10 -13 -9 -27 -16 -30 -16 -3 0 -5 27 -5 60 l0 60 -30 0 -30 0 0 -170z"/>
<path d="M1780 2160 l0 -160 90 0 c89 0 90 0 90 25 0 24 -3 25 -55 25 l-55 0
0 45 0 45 55 0 c52 0 55 1 55 25 0 24 -3 25 -55 25 l-55 0 0 40 0 40 55 0 c52
0 55 1 55 25 0 25 -1 25 -90 25 l-90 0 0 -160z"/>
<path d="M2104 2275 c-3 -14 -15 -30 -25 -36 -23 -12 -25 -39 -4 -39 12 0 15
-15 15 -76 0 -90 9 -111 54 -120 48 -9 76 2 76 31 0 18 -4 22 -20 18 -36 -9
-50 14 -50 83 l0 64 35 0 c31 0 35 3 35 25 0 22 -4 25 -35 25 -31 0 -35 3 -35
25 0 35 -37 35 -46 0z"/>
<path d="M2720 2242 c-23 -7 -26 -14 -21 -41 0 -5 24 -8 53 -7 41 1 53 -3 56
-15 2 -13 -9 -17 -50 -22 -67 -8 -103 -43 -94 -91 12 -62 79 -85 129 -46 l26
20 6 -20 c4 -13 15 -20 32 -20 l25 0 -4 100 c-3 86 -6 102 -24 121 -24 23 -91
33 -134 21z m90 -146 c0 -30 -22 -49 -52 -44 -49 7 -28 68 23 68 24 0 29 -4
29 -24z"/>
<path d="M3000 2125 l0 -125 30 0 c30 0 30 0 30 58 0 116 38 173 84 126 12
-12 16 -36 16 -100 l0 -84 30 0 30 0 0 100 c0 94 -2 103 -25 125 -28 29 -63
32 -106 10 -26 -14 -30 -14 -35 0 -3 8 -17 15 -30 15 l-24 0 0 -125z"/>
<path d="M2210 1830 c0 -33 4 -60 10 -60 6 0 10 11 10 25 0 20 5 25 25 25 20
0 25 -5 25 -25 0 -14 5 -25 10 -25 6 0 10 27 10 60 0 33 -4 60 -10 60 -5 0
-10 -11 -10 -25 0 -20 -5 -25 -25 -25 -20 0 -25 5 -25 25 0 14 -4 25 -10 25
-6 0 -10 -27 -10 -60z"/>
<path d="M2755 1863 c-6 -10 -8 -34 -5 -53 4 -27 10 -36 28 -38 12 -2 22 1 22
7 0 6 -7 11 -15 11 -9 0 -15 9 -15 25 0 16 6 25 15 25 8 0 15 5 15 10 0 6 -6
10 -14 10 -8 0 -16 5 -18 10 -2 6 -8 2 -13 -7z"/>
<path d="M2402 1818 c3 -42 4 -43 41 -44 l37 -1 0 43 c0 24 -4 44 -10 44 -5 0
-10 -9 -10 -19 0 -30 -11 -51 -26 -51 -9 0 -14 12 -14 35 0 19 -5 35 -11 35
-6 0 -9 -17 -7 -42z"/>
<path d="M2570 1814 c0 -32 4 -44 15 -44 10 0 15 11 15 35 0 24 5 35 15 35 10
0 15 -11 15 -35 0 -19 5 -35 11 -35 6 0 9 17 7 43 -3 41 -4 42 -40 43 l-38 1
0 -43z"/>
</g>
</svg>
